# 3ds Max Wavefront OBJ Exporter v0.97b - (c)2007 guruware
# File Created: 24.09.2015 07:49:23

mtllib 3d-model.mtl


o Gruppe_161_005


v  -222.4530 111.9615 82.2919
v  -222.4530 133.9230 60.3303
v  -222.4530 30.0000 0.3304
v  -222.4530 81.9615 90.3303
v  -222.4530 51.9615 82.2919
v  -222.4530 30.0000 60.3304
v  -222.4530 21.9615 30.3304
v  197.5470 133.9230 60.3303
v  197.5470 30.0000 0.3304
v  197.5470 111.9615 82.2919
v  197.5470 81.9615 90.3303
v  197.5470 51.9615 82.2919
v  197.5470 30.0000 60.3304
v  197.5470 21.9615 30.3304
# 14 vertices

vn -1.0000 -0.0000 0.0000
vn -0.0000 0.5000 -0.8660
vn 1.0000 0.0000 -0.0000
vn 0.0000 0.7071 0.7071
vn 0.0000 0.5000 0.8660
vn 0.0000 0.0000 1.0000
vn 0.0000 -0.5000 0.8660
vn 0.0000 -0.8660 0.5000
vn 0.0000 -1.0000 0.0000
vn 0.0000 -0.9659 -0.2588
# 10 vertex normals

vt -0.0161 0.1200 0.0000
vt 0.0000 0.2400 0.0000
vt -0.2400 0.2400 0.0000
vt -0.0600 0.0322 0.0000
vt -0.1200 -0.0000 0.0000
vt -0.1800 0.0322 0.0000
vt -0.2239 0.1200 0.0000
vt 0.0000 0.4800 0.0000
vt 0.0000 0.0000 0.0000
vt 0.8400 -0.0000 0.0000
vt 0.8400 0.4800 0.0000
vt 0.2400 0.2400 0.0000
vt -0.0000 0.2400 0.0000
vt 0.0161 0.1200 0.0000
vt 0.0600 0.0322 0.0000
vt 0.1200 -0.0000 0.0000
vt 0.1800 0.0322 0.0000
vt 0.2239 0.1200 0.0000
vt 0.0621 -0.0000 0.0000
vt 0.0621 0.8400 0.0000
vt 0.0000 0.8400 0.0000
vt 0.1242 -0.0000 0.0000
vt 0.1242 0.8400 0.0000
vt 0.1863 -0.0000 0.0000
vt 0.1863 0.8400 0.0000
vt 0.2485 -0.0000 0.0000
vt 0.2485 0.8400 0.0000
vt 0.3106 -0.0000 0.0000
vt 0.3106 0.8400 0.0000
vt 0.3727 -0.0000 0.0000
vt 0.3727 0.8400 0.0000
# 31 texture coords

g Gruppe_161_005
usemtl wire_087224198
s off
f 1/1/1 2/2/1 3/3/1 4/4/1 
f 5/5/1 4/4/1 3/3/1 6/6/1 
f 6/6/1 3/3/1 7/7/1 
f 3/8/2 2/9/2 8/10/2 9/11/2 
f 9/12/3 8/13/3 10/14/3 11/15/3 
f 9/12/3 11/15/3 12/16/3 13/17/3 
f 9/12/3 13/17/3 14/18/3 
f 2/9/4 1/19/5 10/20/5 8/21/4 
f 1/19/5 4/22/6 11/23/6 10/20/5 
f 4/22/6 5/24/7 12/25/7 11/23/6 
f 12/25/7 5/24/7 6/26/8 13/27/8 
f 6/26/8 7/28/9 14/29/9 13/27/8 
f 14/29/9 7/28/9 3/30/10 9/31/10 
# 11 polygons - 2 triangles


o Gruppe_161_004


v  -222.4530 66.9615 256.2726
v  -222.4530 96.9615 264.3111
v  -222.4530 96.9615 144.3111
v  -222.4530 45.0000 234.3111
v  -222.4530 36.9615 204.3111
v  -222.4530 45.0000 174.3111
v  -222.4530 66.9615 152.3496
v  197.5470 96.9615 264.3111
v  197.5470 96.9615 144.3111
v  197.5470 66.9615 256.2726
v  197.5470 45.0000 234.3111
v  197.5470 36.9615 204.3111
v  197.5470 45.0000 174.3111
v  197.5470 66.9615 152.3496
# 14 vertices

vn -1.0000 -0.0000 0.0000
vn -0.0000 1.0000 -0.0000
vn 1.0000 0.0000 -0.0000
vn 0.0000 -0.2588 0.9659
vn 0.0000 -0.5000 0.8660
vn 0.0000 -0.8660 0.5000
vn 0.0000 -1.0000 -0.0000
vn 0.0000 -0.8660 -0.5000
vn 0.0000 -0.5000 -0.8660
vn 0.0000 -0.2588 -0.9659
# 10 vertex normals

vt -0.0161 0.1200 0.0000
vt 0.0000 0.2400 0.0000
vt -0.2400 0.2400 0.0000
vt -0.0600 0.0322 0.0000
vt -0.1200 -0.0000 0.0000
vt -0.1800 0.0322 0.0000
vt -0.2239 0.1200 0.0000
vt 0.0000 0.4800 0.0000
vt 0.0000 0.0000 0.0000
vt 0.8400 -0.0000 0.0000
vt 0.8400 0.4800 0.0000
vt 0.2400 0.2400 0.0000
vt -0.0000 0.2400 0.0000
vt 0.0161 0.1200 0.0000
vt 0.0600 0.0322 0.0000
vt 0.1200 -0.0000 0.0000
vt 0.1800 0.0322 0.0000
vt 0.2239 0.1200 0.0000
vt 0.0621 -0.0000 0.0000
vt 0.0621 0.8400 0.0000
vt 0.0000 0.8400 0.0000
vt 0.1242 -0.0000 0.0000
vt 0.1242 0.8400 0.0000
vt 0.1863 -0.0000 0.0000
vt 0.1863 0.8400 0.0000
vt 0.2485 -0.0000 0.0000
vt 0.2485 0.8400 0.0000
vt 0.3106 -0.0000 0.0000
vt 0.3106 0.8400 0.0000
vt 0.3727 -0.0000 0.0000
vt 0.3727 0.8400 0.0000
# 31 texture coords

g Gruppe_161_004
usemtl wire_134006006
s off
f 15/32/11 16/33/11 17/34/11 18/35/11 
f 19/36/11 18/35/11 17/34/11 20/37/11 
f 20/37/11 17/34/11 21/38/11 
f 17/39/12 16/40/12 22/41/12 23/42/12 
f 23/43/13 22/44/13 24/45/13 25/46/13 
f 23/43/13 25/46/13 26/47/13 27/48/13 
f 23/43/13 27/48/13 28/49/13 
f 16/40/14 15/50/15 24/51/15 22/52/14 
f 15/50/15 18/53/16 25/54/16 24/51/15 
f 18/53/16 19/55/17 26/56/17 25/54/16 
f 26/56/17 19/55/17 20/57/18 27/58/18 
f 20/57/18 21/59/19 28/60/19 27/58/18 
f 28/60/19 21/59/19 17/61/20 23/62/20 
# 11 polygons - 2 triangles


o Gruppe_161_003


v  -42.3863 125.1905 169.0697
v  -20.7898 147.1531 173.0517
v  -122.9734 207.1482 154.1017
v  -71.8860 117.1506 163.6159
v  -101.3846 125.1877 158.1516
v  -122.9778 147.1482 154.1409
v  -130.8799 177.1478 152.6586
v  55.6370 146.8775 -239.9361
v  -46.5466 206.8726 -258.8860
v  34.0405 124.9150 -243.9180
v  4.5408 116.8751 -249.3718
v  -24.9577 124.9122 -254.8361
v  -46.5510 146.8727 -258.8468
v  -54.4530 176.8723 -260.3292
# 14 vertices

vn -0.1820 0.0007 0.9833
vn 0.4917 0.8660 0.0904
vn 0.1820 -0.0007 -0.9833
vn 0.6952 -0.7071 0.1291
vn 0.4916 -0.8660 0.0916
vn -0.0001 -1.0000 0.0007
vn -0.4917 -0.8660 -0.0904
vn -0.8516 -0.5000 -0.1573
vn -0.9833 -0.0000 -0.1820
vn -0.9498 0.2588 -0.1759
# 10 vertex normals

vt -0.0161 0.1200 0.0000
vt 0.0000 0.2400 0.0000
vt -0.2400 0.2400 0.0000
vt -0.0600 0.0322 0.0000
vt -0.1200 -0.0000 0.0000
vt -0.1800 0.0322 0.0000
vt -0.2239 0.1200 0.0000
vt 0.0000 0.4800 0.0000
vt 0.0000 0.0000 0.0000
vt 0.8400 -0.0000 0.0000
vt 0.8400 0.4800 0.0000
vt 0.2400 0.2400 0.0000
vt -0.0000 0.2400 0.0000
vt 0.0161 0.1200 0.0000
vt 0.0600 0.0322 0.0000
vt 0.1200 -0.0000 0.0000
vt 0.1800 0.0322 0.0000
vt 0.2239 0.1200 0.0000
vt 0.0621 -0.0000 0.0000
vt 0.0621 0.8400 0.0000
vt 0.0000 0.8400 0.0000
vt 0.1242 -0.0000 0.0000
vt 0.1242 0.8400 0.0000
vt 0.1863 -0.0000 0.0000
vt 0.1863 0.8400 0.0000
vt 0.2485 -0.0000 0.0000
vt 0.2485 0.8400 0.0000
vt 0.3106 -0.0000 0.0000
vt 0.3106 0.8400 0.0000
vt 0.3727 -0.0000 0.0000
vt 0.3727 0.8400 0.0000
# 31 texture coords

g Gruppe_161_003
usemtl wire_224086086
s off
f 29/63/21 30/64/21 31/65/21 32/66/21 
f 33/67/21 32/66/21 31/65/21 34/68/21 
f 34/68/21 31/65/21 35/69/21 
f 31/70/22 30/71/22 36/72/22 37/73/22 
f 37/74/23 36/75/23 38/76/23 39/77/23 
f 37/74/23 39/77/23 40/78/23 41/79/23 
f 37/74/23 41/79/23 42/80/23 
f 30/71/24 29/81/25 38/82/25 36/83/24 
f 29/81/25 32/84/26 39/85/26 38/82/25 
f 32/84/26 33/86/27 40/87/27 39/85/26 
f 40/87/27 33/86/27 34/88/28 41/89/28 
f 34/88/28 35/90/29 42/91/29 41/89/28 
f 42/91/29 35/90/29 31/92/30 37/93/30 
# 11 polygons - 2 triangles


o Gruppe_161_002


v  118.2177 125.2617 202.2714
v  139.8142 147.2242 206.2534
v  37.6306 207.2194 187.3034
v  88.7180 117.2218 196.8176
v  59.2195 125.2589 191.3533
v  37.6262 147.2194 187.3426
v  29.7241 177.2190 185.8602
v  216.2410 146.9487 -206.7344
v  114.0574 206.9438 -225.6844
v  194.6445 124.9861 -210.7164
v  165.1448 116.9463 -216.1702
v  135.6463 124.9833 -221.6345
v  114.0530 146.9438 -225.6451
v  106.1510 176.9435 -227.1275
# 14 vertices

vn -0.1820 0.0007 0.9833
vn 0.4917 0.8660 0.0904
vn 0.1820 -0.0007 -0.9833
vn 0.6952 -0.7071 0.1291
vn 0.4916 -0.8660 0.0916
vn -0.0001 -1.0000 0.0007
vn -0.4917 -0.8660 -0.0904
vn -0.8516 -0.5000 -0.1573
vn -0.9833 -0.0000 -0.1820
vn -0.9498 0.2588 -0.1759
# 10 vertex normals

vt -0.0161 0.1200 0.0000
vt 0.0000 0.2400 0.0000
vt -0.2400 0.2400 0.0000
vt -0.0600 0.0322 0.0000
vt -0.1200 -0.0000 0.0000
vt -0.1800 0.0322 0.0000
vt -0.2239 0.1200 0.0000
vt 0.0000 0.4800 0.0000
vt 0.0000 0.0000 0.0000
vt 0.8400 -0.0000 0.0000
vt 0.8400 0.4800 0.0000
vt 0.2400 0.2400 0.0000
vt -0.0000 0.2400 0.0000
vt 0.0161 0.1200 0.0000
vt 0.0600 0.0322 0.0000
vt 0.1200 -0.0000 0.0000
vt 0.1800 0.0322 0.0000
vt 0.2239 0.1200 0.0000
vt 0.0621 -0.0000 0.0000
vt 0.0621 0.8400 0.0000
vt 0.0000 0.8400 0.0000
vt 0.1242 -0.0000 0.0000
vt 0.1242 0.8400 0.0000
vt 0.1863 -0.0000 0.0000
vt 0.1863 0.8400 0.0000
vt 0.2485 -0.0000 0.0000
vt 0.2485 0.8400 0.0000
vt 0.3106 -0.0000 0.0000
vt 0.3106 0.8400 0.0000
vt 0.3727 -0.0000 0.0000
vt 0.3727 0.8400 0.0000
# 31 texture coords

g Gruppe_161_002
usemtl wire_006134006
s off
f 43/94/31 44/95/31 45/96/31 46/97/31 
f 47/98/31 46/97/31 45/96/31 48/99/31 
f 48/99/31 45/96/31 49/100/31 
f 45/101/32 44/102/32 50/103/32 51/104/32 
f 51/105/33 50/106/33 52/107/33 53/108/33 
f 51/105/33 53/108/33 54/109/33 55/110/33 
f 51/105/33 55/110/33 56/111/33 
f 44/102/34 43/112/35 52/113/35 50/114/34 
f 43/112/35 46/115/36 53/116/36 52/113/35 
f 46/115/36 47/117/37 54/118/37 53/116/36 
f 54/118/37 47/117/37 48/119/38 55/120/38 
f 48/119/38 49/121/39 56/122/39 55/120/38 
f 56/122/39 49/121/39 45/123/40 51/124/40 
# 11 polygons - 2 triangles


o Gruppe_161_001


v  -197.5470 40.9412 -68.3361
v  -197.5470 62.9027 -46.3746
v  -197.5470 122.9027 -150.2976
v  -197.5470 32.9027 -98.3361
v  -197.5470 40.9412 -128.3361
v  -197.5470 62.9027 -150.2976
v  -197.5470 92.9027 -158.3361
v  222.4530 62.9027 -46.3746
v  222.4530 122.9027 -150.2976
v  222.4530 40.9412 -68.3361
v  222.4530 32.9027 -98.3361
v  222.4530 40.9412 -128.3361
v  222.4530 62.9027 -150.2976
v  222.4530 92.9027 -158.3361
# 14 vertices

vn -1.0000 -0.0000 -0.0000
vn -0.0000 0.8660 0.5000
vn 1.0000 0.0000 0.0000
vn 0.0000 -0.7071 0.7071
vn 0.0000 -0.8660 0.5000
vn 0.0000 -1.0000 -0.0000
vn 0.0000 -0.8660 -0.5000
vn 0.0000 -0.5000 -0.8660
vn 0.0000 0.0000 -1.0000
vn 0.0000 0.2588 -0.9659
# 10 vertex normals

vt -0.0161 0.1200 0.0000
vt 0.0000 0.2400 0.0000
vt -0.2400 0.2400 0.0000
vt -0.0600 0.0322 0.0000
vt -0.1200 -0.0000 0.0000
vt -0.1800 0.0322 0.0000
vt -0.2239 0.1200 0.0000
vt 0.0000 0.4800 0.0000
vt 0.0000 0.0000 0.0000
vt 0.8400 -0.0000 0.0000
vt 0.8400 0.4800 0.0000
vt 0.2400 0.2400 0.0000
vt -0.0000 0.2400 0.0000
vt 0.0161 0.1200 0.0000
vt 0.0600 0.0322 0.0000
vt 0.1200 -0.0000 0.0000
vt 0.1800 0.0322 0.0000
vt 0.2239 0.1200 0.0000
vt 0.0621 -0.0000 0.0000
vt 0.0621 0.8400 0.0000
vt 0.0000 0.8400 0.0000
vt 0.1242 -0.0000 0.0000
vt 0.1242 0.8400 0.0000
vt 0.1863 -0.0000 0.0000
vt 0.1863 0.8400 0.0000
vt 0.2485 -0.0000 0.0000
vt 0.2485 0.8400 0.0000
vt 0.3106 -0.0000 0.0000
vt 0.3106 0.8400 0.0000
vt 0.3727 -0.0000 0.0000
vt 0.3727 0.8400 0.0000
# 31 texture coords

g Gruppe_161_001
usemtl wire_229166215
s off
f 57/125/41 58/126/41 59/127/41 60/128/41 
f 61/129/41 60/128/41 59/127/41 62/130/41 
f 62/130/41 59/127/41 63/131/41 
f 59/132/42 58/133/42 64/134/42 65/135/42 
f 65/136/43 64/137/43 66/138/43 67/139/43 
f 65/136/43 67/139/43 68/140/43 69/141/43 
f 65/136/43 69/141/43 70/142/43 
f 58/133/44 57/143/45 66/144/45 64/145/44 
f 57/143/45 60/146/46 67/147/46 66/144/45 
f 60/146/46 61/148/47 68/149/47 67/147/46 
f 68/149/47 61/148/47 62/150/48 69/151/48 
f 62/150/48 63/152/49 70/153/49 69/151/48 
f 70/153/49 63/152/49 59/154/50 65/155/50 
# 11 polygons - 2 triangles

