# Blender v2.78 (sub 0) OBJ File: ''
# www.blender.org
mtllib floor.mtl
o Cube
v 5.330351 -0.562287 -4.940540
v 5.321833 -0.546627 4.951469
v -5.331122 -0.539187 4.942283
v -5.322602 -0.554847 -4.949728
v 5.331124 0.539187 -4.942281
v 5.322600 0.554847 4.949729
v -5.330353 0.562287 4.940538
v -5.321833 0.546627 -4.951469
vn -0.0007 -1.0000 0.0016
vn 0.0007 1.0000 -0.0016
vn 1.0000 -0.0007 0.0009
vn -0.0009 0.0016 1.0000
vn -1.0000 0.0007 -0.0009
vn 0.0009 -0.0016 -1.0000
usemtl Material
s off
f 1//1 2//1 3//1 4//1
f 5//2 8//2 7//2 6//2
f 1//3 5//3 6//3 2//3
f 2//4 6//4 7//4 3//4
f 3//5 7//5 8//5 4//5
f 5//6 1//6 4//6 8//6
