# Blender v2.78 (sub 0) OBJ File: ''
# www.blender.org
mtllib square.mtl
o Cube
v 0.812725 -0.242021 -1.510266
v 1.360998 -1.044606 0.237662
v -0.543440 -1.525604 0.614170
v -1.091712 -0.723019 -1.133758
v 0.543440 1.525604 -0.614170
v 1.091712 0.723019 1.133759
v -0.812725 0.242021 1.510266
v -1.360998 1.044606 -0.237662
vn 0.1346 -0.8838 -0.4480
vn -0.1346 0.8838 0.4480
vn 0.9522 0.2405 -0.1883
vn 0.2741 -0.4013 0.8740
vn -0.9522 -0.2405 0.1883
vn -0.2741 0.4013 -0.8740
usemtl Material
s off
f 2//1 4//1 1//1
f 8//2 6//2 5//2
f 5//3 2//3 1//3
f 6//4 3//4 2//4
f 3//5 8//5 4//5
f 1//6 8//6 5//6
f 2//1 3//1 4//1
f 8//2 7//2 6//2
f 5//3 6//3 2//3
f 6//4 7//4 3//4
f 3//5 7//5 8//5
f 1//6 4//6 8//6
